<?xml version="1.0" standalone="no"?>
<!DOCTYPE svg PUBLIC "-//W3C//DTD SVG 20010904//EN"
 "http://www.w3.org/TR/2001/REC-SVG-20010904/DTD/svg10.dtd">
<svg version="1.0" xmlns="http://www.w3.org/2000/svg"
 width="500.000000pt" height="500.000000pt" viewBox="0 0 500.000000 500.000000"
 preserveAspectRatio="xMidYMid meet">

<g transform="translate(0.000000,500.000000) scale(0.100000,-0.100000)"
fill="#000000" stroke="none">
<path d="M3930 2940 c-201 -82 -374 -151 -385 -155 -15 -4 4 -16 74 -44 l94
-38 41 -104 c23 -57 45 -112 49 -122 6 -15 16 -8 64 43 32 33 63 60 69 60 6 0
57 -37 113 -81 56 -45 103 -80 105 -78 3 2 36 144 76 314 39 171 74 320 77
333 3 12 1 22 -3 21 -5 0 -173 -68 -374 -149z m255 -200 c-30 -128 -57 -235
-59 -238 -2 -2 -54 36 -115 85 l-110 88 24 26 c14 14 25 31 25 38 0 7 5 9 10
6 6 -3 10 -1 10 4 0 6 5 11 11 11 6 0 65 50 131 111 66 61 121 109 123 107 3
-2 -20 -109 -50 -238z m-190 172 c-6 -5 -67 -44 -137 -86 -126 -77 -128 -78
-165 -65 -47 15 -49 14 148 94 169 69 167 69 154 57z m3 -85 c-43 -40 -78 -79
-78 -87 0 -7 -3 -11 -6 -7 -4 3 -21 -5 -40 -19 -26 -20 -36 -38 -45 -80 -7
-30 -15 -51 -19 -47 -10 12 -53 123 -49 127 2 2 21 14 41 28 21 14 35 28 30
33 -4 5 -2 5 5 1 7 -3 60 23 120 58 59 36 110 65 113 65 3 0 -30 -32 -72 -72z
m-104 -206 c3 -5 -1 -14 -9 -21 -13 -10 -15 -9 -15 9 0 21 14 28 24 12z"/>
<path d="M2970 2853 c-50 -18 -76 -70 -60 -119 12 -35 16 -38 105 -68 64 -22
78 -42 50 -70 -25 -24 -72 -20 -99 9 -14 15 -34 25 -50 25 -24 0 -26 -3 -21
-22 4 -13 20 -35 36 -50 25 -24 38 -28 90 -28 54 0 64 3 90 29 57 58 27 140
-57 156 -64 11 -85 26 -82 54 3 22 9 26 39 29 25 2 40 -3 54 -18 22 -24 65
-27 65 -4 0 57 -93 102 -160 77z"/>
<path d="M3250 2853 c-50 -18 -76 -70 -60 -119 12 -35 16 -38 105 -68 64 -22
78 -42 50 -70 -25 -24 -72 -20 -99 9 -14 15 -34 25 -50 25 -24 0 -26 -3 -21
-22 4 -13 20 -35 36 -50 25 -24 38 -28 90 -28 54 0 64 3 90 29 57 58 27 140
-57 156 -64 11 -85 26 -82 54 3 22 9 26 39 29 25 2 40 -3 54 -18 22 -24 65
-27 65 -4 0 57 -93 102 -160 77z"/>
<path d="M960 2690 l0 -160 30 0 c29 0 30 1 30 50 l0 50 39 0 c102 0 161 72
127 154 -22 54 -49 66 -143 66 l-83 0 0 -160z m151 100 c22 -12 27 -68 7 -88
-7 -7 -31 -12 -55 -12 l-43 0 0 55 0 55 36 0 c19 0 44 -5 55 -10z"/>
<path d="M1305 2838 c-2 -7 -24 -79 -48 -160 l-45 -148 33 0 c28 0 33 4 41 33
9 30 13 32 57 35 46 3 48 2 62 -32 13 -30 20 -36 46 -36 21 0 30 4 26 13 -2 6
-24 78 -48 160 l-43 147 -38 0 c-22 0 -40 -5 -43 -12z m59 -113 c4 -22 9 -48
12 -57 4 -15 -1 -18 -29 -18 l-34 0 15 71 c16 72 24 73 36 4z"/>
<path d="M1510 2690 l0 -160 35 0 35 0 0 49 0 49 57 4 c48 4 61 10 85 37 40
45 40 111 -1 152 -28 28 -33 29 -120 29 l-91 0 0 -160z m162 93 c42 -38 11
-93 -53 -93 l-39 0 0 55 0 55 37 0 c20 0 45 -7 55 -17z"/>
<path d="M1790 2690 l0 -160 116 0 115 0 -3 28 c-3 27 -4 27 -80 30 l-78 3 0
39 0 40 70 0 c68 0 70 1 70 25 0 24 -2 25 -70 25 l-70 0 0 40 0 40 75 0 c73 0
75 1 75 25 l0 25 -110 0 -110 0 0 -160z"/>
<path d="M2070 2690 l0 -160 30 0 30 0 0 60 c0 56 2 60 23 60 18 0 31 -14 57
-60 31 -54 37 -60 67 -60 18 0 33 2 33 5 0 3 -13 27 -30 53 -16 27 -30 52 -30
55 0 3 14 19 30 35 42 42 42 101 1 143 -28 28 -33 29 -120 29 l-91 0 0 -160z
m164 94 c39 -39 7 -84 -60 -84 l-44 0 0 50 0 50 44 0 c27 0 51 -6 60 -16z"/>
<path d="M2350 2690 l0 -160 110 0 110 0 0 30 0 30 -80 0 -80 0 0 130 0 130
-30 0 -30 0 0 -160z"/>
<path d="M2630 2690 l0 -160 110 0 110 0 0 30 0 30 -80 0 -80 0 0 40 0 40 75
0 c73 0 75 1 75 25 0 24 -2 25 -75 25 l-75 0 0 40 0 40 80 0 c79 0 80 0 80 25
l0 25 -110 0 -110 0 0 -160z"/>
<path d="M3125 2270 c-3 -6 1 -7 9 -4 18 7 21 14 7 14 -6 0 -13 -4 -16 -10z"/>
<path d="M1014 2255 c-7 -17 12 -45 30 -45 6 0 3 5 -6 11 -21 12 -24 35 -5 42
9 4 9 6 -1 6 -7 1 -15 -6 -18 -14z"/>
<path d="M1536 2261 c-3 -4 6 -6 19 -3 14 2 25 6 25 8 0 8 -39 4 -44 -5z"/>
<path d="M1943 2254 c1 -13 -4 -18 -16 -17 -10 0 -16 -2 -13 -5 3 -3 1 -11 -5
-18 -8 -9 -6 -11 9 -7 12 3 25 -3 33 -14 8 -11 21 -23 29 -28 12 -7 13 -6 3 7
-7 8 -9 19 -5 23 4 5 2 5 -4 2 -7 -4 -17 0 -24 8 -10 12 -10 18 0 30 9 11 10
19 3 26 -8 8 -11 6 -10 -7z"/>
<path d="M2052 2213 l2 -58 3 52 c3 44 7 52 26 56 18 4 17 5 -5 6 -28 1 -28 0
-26 -56z"/>
<path d="M2469 2253 c-13 -17 -13 -17 6 -3 11 8 22 16 24 17 2 2 0 3 -6 3 -6
0 -17 -8 -24 -17z"/>
<path d="M2518 2263 c7 -3 16 -2 19 1 4 3 -2 6 -13 5 -11 0 -14 -3 -6 -6z"/>
<path d="M2107 2231 c-4 -17 -3 -21 5 -13 5 5 8 16 6 23 -3 8 -7 3 -11 -10z"/>
<path d="M2325 2240 c-3 -5 -1 -10 4 -10 6 0 11 5 11 10 0 6 -2 10 -4 10 -3 0
-8 -4 -11 -10z"/>
<path d="M3110 2240 c0 -5 5 -10 11 -10 5 0 7 5 4 10 -3 6 -8 10 -11 10 -2 0
-4 -4 -4 -10z"/>
<path d="M1100 2229 c0 -5 5 -7 10 -4 6 3 10 8 10 11 0 2 -4 4 -10 4 -5 0 -10
-5 -10 -11z"/>
<path d="M1150 2197 c4 -41 5 -41 8 -8 2 18 0 37 -5 42 -5 5 -6 -11 -3 -34z"/>
<path d="M1226 2226 c3 -8 -2 -16 -13 -19 -15 -4 -15 -5 -1 -6 9 0 19 -9 21
-18 3 -10 5 -4 6 14 0 17 -3 35 -9 38 -5 3 -7 0 -4 -9z"/>
<path d="M1270 2200 c0 -22 2 -40 4 -40 2 0 6 18 8 40 2 22 0 40 -4 40 -5 0
-8 -18 -8 -40z"/>
<path d="M1376 2226 c4 -10 -3 -16 -23 -19 -27 -4 -27 -4 5 -6 31 -1 45 20 22
34 -5 3 -7 0 -4 -9z"/>
<path d="M1614 2226 c-3 -8 -4 -23 -1 -33 3 -12 5 -9 6 9 0 14 7 29 14 31 9 4
9 6 -1 6 -7 1 -15 -5 -18 -13z"/>
<path d="M1726 2226 c3 -8 -2 -16 -13 -19 -15 -4 -15 -5 -1 -6 9 0 19 -9 21
-18 3 -10 5 -4 6 14 0 17 -3 35 -9 38 -5 3 -7 0 -4 -9z"/>
<path d="M1770 2200 c0 -22 2 -40 4 -40 2 0 6 18 8 40 2 22 0 40 -4 40 -5 0
-8 -18 -8 -40z"/>
<path d="M1815 2230 c3 -5 8 -10 11 -10 2 0 4 5 4 10 0 6 -5 10 -11 10 -5 0
-7 -4 -4 -10z"/>
<path d="M2143 2200 c0 -25 2 -35 4 -22 2 12 2 32 0 45 -2 12 -4 2 -4 -23z"/>
<path d="M2203 2200 c0 -25 2 -35 4 -22 2 12 2 32 0 45 -2 12 -4 2 -4 -23z"/>
<path d="M2240 2229 c0 -5 5 -7 10 -4 6 3 10 8 10 11 0 2 -4 4 -10 4 -5 0 -10
-5 -10 -11z"/>
<path d="M2290 2197 c4 -41 5 -41 8 -8 2 18 0 37 -5 42 -5 5 -6 -11 -3 -34z"/>
<path d="M2701 2183 c1 -32 3 -50 6 -40 2 9 12 17 22 17 23 0 41 20 40 45 -1
17 -2 16 -8 -5 -4 -16 -15 -26 -30 -28 -21 -3 -23 -1 -19 32 2 20 0 36 -4 36
-4 0 -7 -26 -7 -57z"/>
<path d="M2871 2181 c1 -33 4 -48 7 -36 5 13 16 20 32 20 16 0 25 6 26 18 1
12 1 13 -3 2 -6 -20 -42 -19 -50 1 -3 9 -1 24 4 34 9 13 8 17 -3 17 -10 0 -14
-14 -13 -56z"/>
<path d="M2926 2227 c3 -10 9 -15 12 -12 3 3 0 11 -7 18 -10 9 -11 8 -5 -6z"/>
<path d="M2964 2215 c-8 -31 11 -55 40 -54 19 1 19 2 -3 8 -37 10 -38 31 -2
31 17 0 31 4 31 8 0 5 -15 6 -32 4 -30 -5 -32 -3 -19 12 8 10 9 16 2 16 -6 0
-13 -11 -17 -25z"/>
<path d="M3053 2200 c0 -25 2 -35 4 -22 2 12 2 32 0 45 -2 12 -4 2 -4 -23z"/>
<path d="M3214 2215 c-8 -31 11 -55 40 -54 19 1 19 2 -3 8 -37 10 -38 31 -2
31 17 0 31 4 31 8 0 5 -15 6 -32 4 -30 -5 -32 -3 -19 12 8 10 9 16 2 16 -6 0
-13 -11 -17 -25z"/>
<path d="M3307 2233 c-17 -16 -5 -33 23 -33 30 0 42 21 20 35 -6 3 -7 -1 -4
-9 4 -12 0 -16 -16 -16 -16 0 -20 4 -16 15 6 16 3 19 -7 8z"/>
<path d="M1553 2214 c34 -18 35 -41 2 -47 -23 -4 -23 -4 2 -3 39 1 44 38 8 54
-37 17 -45 14 -12 -4z"/>
<path d="M2451 2214 c0 -11 3 -14 6 -6 3 7 2 16 -1 19 -3 4 -6 -2 -5 -13z"/>
<path d="M2518 2213 c6 -2 12 -13 12 -24 0 -22 -38 -26 -60 -6 -12 10 -12 9
-1 -5 7 -10 26 -18 42 -18 26 0 29 4 29 30 0 22 -5 30 -17 29 -11 0 -13 -3 -5
-6z"/>
<path d="M2825 2210 c-18 -8 -18 -9 -2 -9 26 -1 16 -24 -14 -32 -21 -6 -19 -7
9 -6 28 1 32 5 32 29 0 15 -1 28 -2 27 -2 0 -12 -4 -23 -9z"/>
<path d="M1183 2180 c2 -8 12 -16 23 -17 13 -2 15 -1 4 4 -8 3 -19 11 -23 17
-6 7 -7 6 -4 -4z"/>
<path d="M1683 2180 c2 -8 12 -16 23 -17 13 -2 15 -1 4 4 -8 3 -19 11 -23 17
-6 7 -7 6 -4 -4z"/>
<path d="M3303 2180 c2 -8 16 -16 33 -17 25 -1 26 0 4 4 -14 3 -29 10 -33 17
-6 7 -7 6 -4 -4z"/>
<path d="M1035 2170 l-30 -8 27 -1 c15 0 30 4 33 9 3 6 5 9 3 9 -2 -1 -16 -5
-33 -9z"/>
<path d="M1338 2168 c6 -6 18 -8 28 -6 14 3 12 5 -9 10 -19 3 -25 2 -19 -4z"/>
<path d="M1451 2164 c0 -11 3 -14 6 -6 3 7 2 16 -1 19 -3 4 -6 -2 -5 -13z"/>
<path d="M1908 2168 c6 -6 18 -8 28 -6 14 3 12 5 -9 10 -19 3 -25 2 -19 -4z"/>
<path d="M2330 2170 c0 -6 7 -10 15 -10 8 0 15 2 15 4 0 2 -7 6 -15 10 -8 3
-15 1 -15 -4z"/>
<path d="M2577 2168 c2 -5 13 -8 23 -8 10 0 21 3 23 8 3 4 -8 7 -23 7 -15 0
-26 -3 -23 -7z"/>
<path d="M1638 2163 c7 -3 16 -2 19 1 4 3 -2 6 -13 5 -11 0 -14 -3 -6 -6z"/>
</g>
</svg>
